<?xml version="1.0" encoding="utf-8"?>
<!-- Generator: Adobe Illustrator 21.1.0, SVG Export Plug-In . SVG Version: 6.00 Build 0)  -->
<svg version="1.1" id="Layer_1" xmlns="http://www.w3.org/2000/svg" xmlns:xlink="http://www.w3.org/1999/xlink" x="0px" y="0px"
	 viewBox="0 0 391 191" style="enable-background:new 0 0 391 191;" xml:space="preserve">
<style type="text/css">
	.st0{fill:none;stroke:#E39E5D;stroke-width:7.8273;stroke-linecap:round;stroke-miterlimit:10;}
	.st1{fill:#E19F5E;}
	.st2{fill:#4E2802;}
	.st3{fill:#3E4B5C;}
	.st4{fill:#4C5C70;}
	.st5{fill:#F4D386;}
	.st6{fill:#C39A76;}
	.st7{fill:#C8645B;}
	.st8{fill:#8AB9D9;}
	.st9{fill:#448775;}
	.st10{fill:#1E120D;}
	.st11{fill:#252222;}
	.st12{fill:#FFFFFF;stroke:#1E120D;stroke-width:0.3315;stroke-miterlimit:10;}
	.st13{fill:#9C9C92;}
	.st14{fill:#E29D5D;}
	.st15{fill:#797970;}
	.st16{fill:#4E4E48;}
	.st17{fill:#5B2D0A;}
	.st18{fill:#FFEECC;}
	.st19{fill:#F3D285;}
	.st20{fill:#B8B8AD;}
	.st21{fill:#C6C6BA;}
	.st22{fill:#846942;}
	.st23{fill:#69350E;}
	.st24{fill:#405062;}
	.st25{fill:#C9645B;}
	.st26{fill:#33404E;}
	.st27{fill:#3A4A59;}
	.st28{fill:#4E2707;}
	.st29{fill:#C48850;}
	.st30{fill:#EAEADB;}
</style>
<g>
	<path class="st0" d="M323.7,64c-1,8.1-3.8,20.6-18.7,25.1c-8.3,2.5-19.1-1.4-23.6-3.3"/>
	<path class="st1" d="M283.3,86.5c0.8-1.3,0.9-2.8,0.3-4.2c-0.1-0.3-0.3-0.8-0.4-1.3c-0.5-2.4-1.7-2.5-2.6-1.8c-0.8,0.7,0.8,2.3-1,3
		c-1.8,0.7-3.4-5.6-5.9-3c-2.1,2.3-2.7,6.4,3.8,9.2C279.7,89.3,282.1,88.5,283.3,86.5L283.3,86.5z"/>
	<path class="st2" d="M330.4,179l-0.2,0c-2.7,0-4.9-2.2-4.9-4.9l0-63.2l9.9,0l0,63.2C335.2,176.8,333,179,330.4,179z"/>
	<path class="st2" d="M346.7,179l-0.2,0c-2.7,0-4.9-2.2-4.9-4.9l0-63.2l9.9,0l0,63.2C351.5,176.8,349.3,179,346.7,179z"/>
	<circle class="st2" cx="337.3" cy="105.6" r="15.2"/>
	<path class="st3" d="M335.3,171.2l-11.4,0c-4.7,0-8.6,3.8-8.6,8.5v0l20,0L335.3,171.2z"/>
	<path class="st4" d="M351.6,171.2l-11.4,0c-4.7,0-8.6,3.8-8.6,8.5v0l20,0L351.6,171.2z"/>
	<path class="st5" d="M356.2,67.8l-3.7,38.6l-30.4,0l-3.7-38.6c-0.5-5.1,3.5-9.4,9-9.4h1.5l14.5,0h4
		C352.7,58.4,356.7,62.7,356.2,67.8z"/>
	<path class="st1" d="M370.7,106.9c-0.2,1.5,0.3,2.9,1.4,3.9c0.3,0.3,0.5,0.6,0.8,1c1.4,2,2.6,1.6,3.1,0.6s-1.6-1.7-0.3-3.1
		s5.4,3.8,6.6,0.4c1-3-0.1-7-7.1-6.9C372.9,102.9,371,104.6,370.7,106.9L370.7,106.9z"/>
	<path class="st1" d="M345.7,43.1l-17.8,0l0-5.6l17.8,0c1.5,0,2.8,1.3,2.8,2.8v0C348.5,41.8,347.2,43.1,345.7,43.1z"/>
	<path class="st1" d="M344.8,30.8l0,5.8v2.2l0,10c0,2.6-2.1,4.7-4.7,4.7l-11.3,0c-2.6,0-4.7-2.1-4.7-4.7v-1.8l0-10.5v-5.8
		c0-2.6,2.1-4.7,4.7-4.7h11.3C342.7,26.1,344.8,28.2,344.8,30.8C344.8,30.8,344.8,30.8,344.8,30.8z"/>
	<path class="st1" d="M338.3,63.7l-4.5,0c-2,0-3.7-1.6-3.7-3.7l0-13.7l11.8,0l0,13.7C342,62,340.3,63.7,338.3,63.7z"/>
	<path class="st6" d="M344.8,38.9l0,10c0,2.6-2.1,4.7-4.7,4.7l-11.3,0c-2.6,0-4.7-2.1-4.7-4.7v-1.8c0.2-0.5,0.7-0.8,1.3-0.8h15.1
		c0.8,0,1.5-0.7,1.5-1.5v-5.4c0-0.7,0.6-1.4,1.3-1.5C344,37.8,344.6,38.3,344.8,38.9z"/>
	<path class="st7" d="M344.8,30.7v5.9h-20.8v-5.8c0-2.6,2.1-4.7,4.7-4.7h11.3C342.7,26.1,344.8,28.2,344.8,30.7z"/>
	<path class="st8" d="M317.3,34.5h27.5v2.2h-25.3C318.3,36.7,317.3,35.7,317.3,34.5L317.3,34.5z"/>
	<g>
		<path class="st4" d="M336.9,41c-0.2,0-0.5-0.2-0.5-0.4c-0.1-0.5-0.6-0.9-1.2-0.9c-0.5,0-1,0.3-1.2,0.8c-0.1,0.3-0.4,0.4-0.7,0.3
			c-0.3-0.1-0.4-0.4-0.3-0.7c0.3-1,1.2-1.6,2.2-1.6c1.1,0,2,0.7,2.3,1.7c0.1,0.3-0.1,0.6-0.4,0.7C337,40.9,336.9,41,336.9,41z"/>
	</g>
	<g>
		<path class="st4" d="M330.1,41c-0.2,0-0.5-0.2-0.5-0.4c-0.1-0.5-0.6-0.9-1.2-0.9c-0.5,0-1,0.3-1.2,0.8c-0.1,0.3-0.4,0.4-0.7,0.3
			c-0.3-0.1-0.4-0.4-0.3-0.7c0.3-1,1.2-1.6,2.2-1.6c1.1,0,2,0.7,2.3,1.7c0.1,0.3-0.1,0.6-0.4,0.7C330.2,40.9,330.1,41,330.1,41z"/>
	</g>
	<line class="st0" x1="351" y1="63.5" x2="373.8" y2="105.8"/>
</g>
<g>
	<path class="st4" d="M204.9,82.4l-7.6,1.5c-0.6,0.1-1.2-0.3-1.3-0.9l-0.1-0.3c-0.1-0.6,0.3-1.2,0.9-1.3l7.6-1.5
		c0.7-0.1,1.4,0.3,1.5,1l0,0C206.1,81.6,205.6,82.3,204.9,82.4z"/>
	<path class="st8" d="M162.7,166.8l0.1,0c2.4,0,4.4-2,4.4-4.4l0-57l-8.9,0l0,57C158.3,164.8,160.3,166.8,162.7,166.8z"/>
	<path class="st9" d="M158.2,159.7l10.3,0c4.3,0,7.7,3.4,7.7,7.7l0,0l-18,0L158.2,159.7z"/>
	<g>
		<g>
			<path class="st10" d="M212,129.4v33.3c-0.2,0-0.3-0.1-0.5-0.1v-33.1C211.6,129.5,211.8,129.4,212,129.4z"/>
		</g>
		<g>
			<path class="st10" d="M217.7,129.5v33.1c-0.2,0-0.3,0.1-0.5,0.1v-33.3C217.4,129.4,217.6,129.5,217.7,129.5z"/>
		</g>
	</g>
	<g>
		<g>
			<path class="st10" d="M224.2,159.9c-0.1,0.1-0.3,0.2-0.4,0.3l-6.5-6.5l-2.6-2.6l-0.3-0.3l-1-1l-1.9-1.9l-0.9-0.9l-0.3-0.3
				l-9.7-9.7c0.1-0.1,0.2-0.3,0.3-0.4l7,7l2.8,2.8l0.3,0.3l0.6,0.6l2.5,2.5l0.6,0.6l0.3,0.3l2.3,2.3L224.2,159.9z"/>
		</g>
		<g>
			<path class="st10" d="M228.3,155.8c-0.1,0.1-0.2,0.3-0.3,0.4l-7-7l-2.3-2.3l-3.5-3.5l-0.6-0.6l-0.3-0.3l-2.8-2.8l-7.1-7.1
				c0.1-0.1,0.3-0.2,0.4-0.3l6.7,6.7L228.3,155.8z"/>
		</g>
	</g>
	<g>
		<g>
			<path class="st10" d="M231.2,149.2c0,0.2-0.1,0.3-0.1,0.5h-32.9c0-0.2-0.1-0.3-0.1-0.5H231.2z"/>
		</g>
		<g>
			<path class="st10" d="M231.3,143.9h-33.4c0-0.2,0-0.3,0.1-0.5h33.3C231.3,143.6,231.3,143.8,231.3,143.9z"/>
		</g>
	</g>
	<g>
		<g>
			<path class="st10" d="M228.8,136.9l-7,7l-2.7,2.7l-0.3,0.3l-13.3,13.3c-0.1-0.1-0.3-0.2-0.4-0.3l13.3-13.3l0.3-0.3l2.3-2.3
				l7.4-7.4C228.6,136.6,228.7,136.8,228.8,136.9z"/>
		</g>
		<g>
			<path class="st10" d="M224.8,132.6l-7.1,7.1l-0.5,0.5l-2.3,2.3l-0.3,0.3l-0.6,0.6l-6.3,6.3l-6.6,6.6c-0.1-0.1-0.2-0.3-0.3-0.4
				l6.2-6.2l6.3-6.3l0.9-0.9l0.3-0.3l2.6-2.6l0.5-0.5l6.7-6.7C224.6,132.5,224.7,132.5,224.8,132.6z"/>
		</g>
	</g>
	<g>
		<g>
			<path class="st10" d="M134.1,128.4v33.3c-0.2,0-0.3-0.1-0.5-0.1v-33.1C133.8,128.5,134,128.5,134.1,128.4z"/>
		</g>
		<g>
			<path class="st10" d="M139.9,128.5v33.1c-0.2,0-0.3,0.1-0.5,0.1v-33.3C139.6,128.5,139.8,128.5,139.9,128.5z"/>
		</g>
	</g>
	<g>
		<g>
			<path class="st10" d="M146.4,158.9c-0.1,0.1-0.3,0.2-0.4,0.3l-6.5-6.5l-2.6-2.6l-0.3-0.3l-1-1l-1.9-1.9l-0.9-0.9l-0.3-0.3
				l-9.7-9.7c0.1-0.1,0.2-0.3,0.3-0.4l7,7l2.8,2.8l0.3,0.3l0.6,0.6l2.5,2.5l0.6,0.6l0.3,0.3l2.3,2.3L146.4,158.9z"/>
		</g>
		<g>
			<path class="st10" d="M150.5,154.9c-0.1,0.1-0.2,0.3-0.3,0.4l-7-7l-2.3-2.3l-3.5-3.5l-0.6-0.6l-0.3-0.3l-2.8-2.8l-7.1-7.1
				c0.1-0.1,0.3-0.2,0.4-0.3l6.7,6.7L150.5,154.9z"/>
		</g>
	</g>
	<g>
		<g>
			<path class="st10" d="M153.3,148.3c0,0.2-0.1,0.3-0.1,0.5h-32.9c0-0.2-0.1-0.3-0.1-0.5H153.3z"/>
		</g>
		<g>
			<path class="st10" d="M153.5,143h-33.4c0-0.2,0-0.3,0.1-0.5h33.3C153.5,142.6,153.5,142.8,153.5,143z"/>
		</g>
	</g>
	<g>
		<g>
			<path class="st10" d="M150.9,135.9l-7,7l-2.7,2.7l-0.3,0.3l-13.3,13.3c-0.1-0.1-0.3-0.2-0.4-0.3l13.3-13.3l0.3-0.3l2.3-2.3
				l7.4-7.4C150.8,135.7,150.8,135.8,150.9,135.9z"/>
		</g>
		<g>
			<path class="st10" d="M147,131.7l-7.1,7.1l-0.5,0.5l-2.3,2.3l-0.3,0.3l-0.6,0.6l-6.3,6.3l-6.6,6.6c-0.1-0.1-0.2-0.3-0.3-0.4
				l6.2-6.2l6.3-6.3l0.9-0.9l0.3-0.3l2.6-2.6l0.5-0.5l6.7-6.7C146.7,131.5,146.9,131.6,147,131.7z"/>
		</g>
	</g>
	<path class="st11" d="M214.6,123.4c-12.5,0-22.6,10.1-22.6,22.6c0,12.5,10.1,22.6,22.6,22.6c12.5,0,22.6-10.1,22.6-22.6
		C237.2,133.6,227.1,123.4,214.6,123.4z M214.6,162.9c-9.3,0-16.8-7.5-16.8-16.8s7.5-16.8,16.8-16.8c9.3,0,16.8,7.5,16.8,16.8
		S223.9,162.9,214.6,162.9z"/>
	<circle class="st12" cx="214.6" cy="146" r="2.9"/>
	<path class="st13" d="M214.6,127.5c-10.2,0-18.5,8.3-18.5,18.5s8.3,18.5,18.5,18.5c10.2,0,18.5-8.3,18.5-18.5
		S224.8,127.5,214.6,127.5z M214.6,162.9c-9.3,0-16.8-7.5-16.8-16.8s7.5-16.8,16.8-16.8c9.3,0,16.8,7.5,16.8,16.8
		S223.9,162.9,214.6,162.9z"/>
	<path class="st11" d="M137.5,122.5c-13.1-0.4-23.8,10.3-23.3,23.3c0.4,11.8,10,21.5,21.9,21.9c13.1,0.4,23.8-10.3,23.3-23.3
		C159,132.5,149.4,122.9,137.5,122.5z M137.7,161.9c-10,0.5-18.2-7.7-17.7-17.7c0.4-8.6,7.4-15.5,15.9-15.9
		c10-0.5,18.2,7.7,17.7,17.7C153.2,154.5,146.2,161.5,137.7,161.9z"/>
	<path class="st13" d="M137.4,126.6c-10.7-0.3-19.5,8.4-19.1,19.1c0.3,9.7,8.2,17.6,17.9,17.9c10.7,0.3,19.5-8.4,19.1-19.1
		C155,134.8,147.1,126.9,137.4,126.6z M137.7,161.9c-10,0.5-18.2-7.7-17.7-17.7c0.4-8.6,7.4-15.5,15.9-15.9
		c10-0.5,18.2,7.7,17.7,17.7C153.2,154.5,146.2,161.5,137.7,161.9z"/>
	<circle class="st12" cx="214.6" cy="146" r="1"/>
	<g>
		<path class="st10" d="M204.9,84.1c0.2-0.1,0.3-0.3,0.3-0.6c0-0.3-0.3-0.5-0.6-0.4l-3.4,0.5l-1.9-0.9c-0.3-0.1-0.6,0-0.7,0.2
			c-0.1,0.3,0,0.6,0.2,0.7l2,1c0.1,0,0.2,0.1,0.3,0l3.6-0.6C204.8,84.2,204.8,84.1,204.9,84.1z"/>
	</g>
	<circle class="st12" cx="136.8" cy="145.1" r="2.9"/>
	<circle class="st12" cx="136.8" cy="145.1" r="1"/>
	<g>
		<path class="st14" d="M214.6,147.3c-0.6,0-1.1-0.4-1.2-1l-10.6-39.3l-6.3-25.6c-0.3-0.6-0.1-1.4,0.5-1.7c0.6-0.3,1.4-0.1,1.7,0.5
			l6.4,25.7c0.1,0.1,0.1,0.2,0.1,0.3l10.7,39.4c0.2,0.7-0.3,1.4-0.9,1.5C214.8,147.3,214.7,147.3,214.6,147.3z"/>
	</g>
	<g>
		<path class="st10" d="M190,87.3c-0.3,0-0.6-0.2-0.7-0.5c-0.1-0.4,0.1-0.8,0.5-0.9l4.5-1.2l1.8-2.2c0.3-0.3,0.7-0.3,1-0.1
			c0.3,0.3,0.3,0.7,0.1,1l-1.9,2.3c-0.1,0.1-0.2,0.2-0.4,0.2l-4.7,1.3C190.1,87.3,190.1,87.3,190,87.3z"/>
	</g>
	<g>
		<path class="st14" d="M199.8,116.2l-35.8,10l5,20.3c0,0,0,0,0,0l36.7-30.3c0.6-0.4,1.4-0.3,1.8,0.2c0.4,0.6,0.3,1.4-0.2,1.8
			L169,149.7c-0.2,0.2-0.5,0.3-0.8,0.3c-0.1,0-0.3,0-0.4-0.1c-0.4-0.1-0.7-0.5-0.8-0.9l-5.8-23.6c-0.1-0.4,0-0.7,0.2-1
			c0.2-0.3,0.5-0.5,0.9-0.6l43.3-11c0.8-0.1,1.5,0.5,1.5,1.4c0,0.6-0.5,1.1-1.1,1.2L199.8,116.2"/>
	</g>
	<g>
		<path class="st14" d="M136.8,146.4c-0.5,0-0.9-0.2-1.1-0.7c-0.3-0.5-0.2-1,0.1-1.4l25.2-19.5l-1.1-9.2l2.5-0.7l1.3,9.9
			c0.1,0.4,0,0.8-0.2,1.1l-24,18.2l28.8,3.2c0,0,0,0,0,0l0.4,2.5c0,0,0,0,0,0l-31.6-3.5C136.9,146.4,136.8,146.4,136.8,146.4z"/>
	</g>
	<path class="st4" d="M152.4,117.3c-0.2-1.6,0.9-3.1,2.5-3.4l14-2.2c2.6-0.4,5.1,0.8,6.4,2.9c0.6,1,0,2.3-1.1,2.5l-4.2,0.7
		l-14.1,2.1C154.2,120,152.6,118.9,152.4,117.3L152.4,117.3z"/>
	<circle class="st13" cx="168.6" cy="148.8" r="7.4"/>
	<circle class="st15" cx="168.6" cy="148.8" r="4.7"/>
	<g>
		<circle class="st16" cx="168.6" cy="145.6" r="0.3"/>
		<ellipse transform="matrix(0.866 -0.5 0.5 0.866 -50.6482 103.0739)" class="st16" cx="167" cy="146" rx="0.3" ry="0.3"/>
		<ellipse transform="matrix(0.5 -0.866 0.866 0.5 -44.5772 217.233)" class="st16" cx="165.8" cy="147.2" rx="0.3" ry="0.3"/>
		<circle class="st16" cx="165.4" cy="148.8" r="0.3"/>
		<ellipse transform="matrix(0.866 -0.5 0.5 0.866 -52.9957 103.0739)" class="st16" cx="165.8" cy="150.4" rx="0.3" ry="0.3"/>
		<ellipse transform="matrix(0.5 -0.866 0.866 0.5 -47.7839 220.4398)" class="st16" cx="167" cy="151.6" rx="0.3" ry="0.3"/>
		<circle class="st16" cx="168.6" cy="152" r="0.3"/>
		<ellipse transform="matrix(0.866 -0.5 0.5 0.866 -52.9957 105.4214)" class="st16" cx="170.2" cy="151.6" rx="0.3" ry="0.3"/>
		<ellipse transform="matrix(0.5 -0.866 0.866 0.5 -44.5772 223.6465)" class="st16" cx="171.4" cy="150.4" rx="0.3" ry="0.3"/>
		<circle class="st16" cx="171.8" cy="148.8" r="0.3"/>
		<ellipse transform="matrix(0.866 -0.5 0.5 0.866 -50.6482 105.4214)" class="st16" cx="171.4" cy="147.2" rx="0.3" ry="0.3"/>
		<ellipse transform="matrix(0.5 -0.866 0.866 0.5 -41.3704 220.4398)" class="st16" cx="170.2" cy="146" rx="0.3" ry="0.3"/>
	</g>
	<g>
		<path class="st14" d="M183.2,159.9c-0.3,0.3-0.8,0.3-1.2,0.1l-14.3-10.4c-0.4-0.3-0.6-0.9-0.3-1.3c0.3-0.5,0.9-0.6,1.4-0.2
			l14.4,10.4c0.4,0.3,0.5,0.8,0.3,1.2C183.4,159.7,183.3,159.8,183.2,159.9z"/>
	</g>
	<path class="st17" d="M179.4,102.9c-1.3,0.4-2.3,1.4-2.7,2.6c-0.1,0.3-0.3,0.7-0.5,1.1c-1.1,1.8-0.3,2.7,0.6,2.8
		c1,0.1,0.8-2,2.5-1.4c1.6,0.6-1.1,5.8,2.1,5.6c2.8-0.2,5.7-2.7,3-8.4C183.5,103.2,181.4,102.3,179.4,102.9L179.4,102.9z"/>
	<path class="st17" d="M160.8,60.9l4.6,12.7l11.7,32c0.6,1.5,2.3,2.3,3.8,1.8c1.5-0.6,2.3-2.3,1.8-3.8l-12-33l-4.3-11.7
		c-0.4-1.2-1.6-2-2.8-2c-0.3,0-0.7,0.1-1,0.2C161,57.7,160.2,59.4,160.8,60.9z"/>
	<path class="st5" d="M160.8,60.9l4.6,12.7l5.2-3l-4.3-11.7c-0.4-1.2-1.6-2-2.8-2c-0.3,0-0.7,0.1-1,0.2
		C161,57.7,160.2,59.4,160.8,60.9z"/>
	<circle class="st8" cx="156.4" cy="100.7" r="13.7"/>
	<path class="st4" d="M164.2,30.6c0,0,6.1,3.5,5.1,7.9c-1,4.4,0.5,4.9,2.3,6.8c1.8,1.9,3.7,7.9,0,9.1c-3.7,1.2-0.8,2.9-5,4.4
		c-4.2,1.5-5.6,0.5-8.7-2c-3.2-2.5-3-10.9-3-10.9L164.2,30.6z"/>
	<path class="st17" d="M158.7,54.3L158.7,54.3c5.3,0,9.6-4.3,9.6-9.6v-6.6c0-5.3-4.3-9.6-9.6-9.6h0c-5.3,0-9.6,4.3-9.6,9.6v6.6
		C149,50,153.3,54.3,158.7,54.3z"/>
	<path class="st4" d="M169.2,34.8c0,0,0.5-4.2-2.4-5.8c-2.9-1.5-3.1,1-4.6-3s-5.5-4-7.1-1.2c-1.6,2.8-2.5,4.5-5.3,3.2
		c-2.8-1.3-2.9,3.4-3.6,5.9S145.6,36,143,39c-2.6,3-2.9,7.5-2.3,10.5c0.6,3-1.4,3.7-1,7s0.9,7.6,3.3,7.3s1.3-3.7,3.8-3.1
		c2.5,0.6,1.9-2.7,4.1-2.4c2.2,0.4,2.5-2.2,2.6-5.5c0.1-3.3-1.1-3.3-0.4-6.9c0.7-3.6-0.2-5.9,1.7-6.3c1.9-0.5,3.7-1.3,3.7-4
		s0.9-3.5,2.4-1.7c1.5,1.7,2.2,2.9,4.5,3.4S168.9,36.9,169.2,34.8z"/>
	<path class="st5" d="M142.8,101.3l27.3,0c0.5-2.9-2.7-12.3-3.4-16.1s3-5.8,3.7-10s-1.7-5.8-2.7-9.6c-0.4-1.4-0.6-3-0.6-4.5
		c-0.1-1.4-0.6-2.6-1.4-3.4c-0.1-0.1-0.2-0.2-0.4-0.4c-0.8-0.7-1.7-1.1-2.8-1l-12.7,0c-3.7,0-6.7,3.3-6.7,7.5l0,3.5
		c0,5.5,3.9,13.3,2.4,18.3C143.9,90.9,142.6,98.9,142.8,101.3z"/>
	<path class="st17" d="M192.8,82.5c0.7-1.5,0-3.3-1.6-3.9l-32.8-14.1l-10.9-4.7c-1.5-0.7-3.3,0-3.9,1.6c-0.1,0.3-0.2,0.7-0.2,1
		c-0.1,1.2,0.6,2.4,1.8,2.9l10.5,4.5L188.9,84C190.4,84.7,192.2,84,192.8,82.5z"/>
	<path class="st5" d="M155.7,69.7c1-1.9,2.1-3.9,2.8-5.3l-10.9-4.7c-1.5-0.7-3.3,0-3.9,1.6c-0.1,0.3-0.2,0.7-0.2,1
		c-0.1,1.2,0.6,2.4,1.8,2.9L155.7,69.7z"/>
	<g>
		<path class="st8" d="M182.6,156c0,0,0.1,0,0.1,0c2.4-0.1,4.3-2,4.2-4.4c-0.4-17.3-9.3-33.3-23.8-42.8l-9.5-6.2
			c-2-1.3-4.7-0.8-6,1.2c-1.3,2-0.8,4.7,1.2,6l9.5,6.2c12.1,7.9,19.5,21.3,19.9,35.8C178.3,154.2,180.2,156,182.6,156z"/>
	</g>
	<path class="st9" d="M177.9,150.1l10.3,0c4.3,0,7.7,3.4,7.7,7.7v0l-18,0L177.9,150.1z"/>
	<path class="st15" d="M187,160.6l-9-0.4c0,0,0,0,0,0l0.1-2.4c0,0,0,0,0,0l9,0.4c0,0,0,0,0,0L187,160.6
		C187,160.6,187,160.6,187,160.6z"/>
	
		<ellipse transform="matrix(4.108869e-02 -0.9992 0.9992 4.108869e-02 15.9802 335.0449)" class="st16" cx="182.5" cy="159.2" rx="1.9" ry="1.9"/>
	<path class="st4" d="M196.6,83.8l-7.6,1.5c-0.6,0.1-1.2-0.3-1.3-0.9l-0.1-0.3c-0.1-0.6,0.3-1.2,0.9-1.3l7.6-1.5
		c0.7-0.1,1.4,0.3,1.5,1l0,0C197.8,83,197.3,83.7,196.6,83.8z"/>
	<path class="st17" d="M188.6,83.5c-0.6,0.3-1.3,0.2-1.7-0.4c-0.8-1.2-1-2-0.9-3.1v0c0.3-2,2-3.6,4.1-3.6c6.4,0,7.3,3.7,6.3,6.3
		c-1.2,3.1-4.7-1.7-6-0.5L188.6,83.5z"/>
	<g>
		<path class="st17" d="M152.8,59.4c0.1-0.5,0.1-0.9,0.1-1.3c0-0.4,0.1-0.8,0.1-1.2c0-0.4,0-0.8,0.1-1.1c0-0.4,0-0.7,0-1.1
			c0-0.3,0-0.7,0-1c0-0.3,0-0.7,0-1c0-0.3,0-0.7,0-1.1c0-0.4,0-0.7-0.1-1.1c0-0.4-0.1-0.8-0.1-1.2c0-0.4-0.1-0.8-0.1-1.3
			c0.4-0.1,0.8-0.1,1.2-0.2c0.4-0.1,0.8-0.1,1.1-0.1c0.4,0,0.7-0.1,1-0.1c0.3,0,0.7,0,1,0c0.3,0,0.7,0,1,0c0.3,0,0.7,0,1,0
			c0.3,0,0.7,0,1,0.1c0.4,0,0.7,0.1,1.1,0.1c0.4,0.1,0.8,0.1,1.2,0.2c-0.1,0.5-0.1,0.9-0.1,1.3c0,0.4-0.1,0.8-0.1,1.2
			c0,0.4,0,0.8-0.1,1.1c0,0.4,0,0.7,0,1.1c0,0.3,0,0.7,0,1c0,0.3,0,0.7,0,1c0,0.3,0,0.7,0,1.1c0,0.4,0,0.7,0.1,1.1
			c0,0.4,0.1,0.8,0.1,1.2c0,0.4,0.1,0.8,0.1,1.3C162.6,59.4,159,63.4,152.8,59.4z"/>
	</g>
</g>
<g>
	<path class="st18" d="M86.1,98.5c1.4,0.4,2.5,1.5,3,2.8c0.1,0.3,0.3,0.7,0.6,1.2c1.2,2,0.4,2.9-0.7,3c-1.1,0.1-0.9-2.2-2.7-1.5
		c-1.8,0.6,1.3,6.4-2.4,6.1c-3.1-0.3-6.3-2.9-3.3-9.2C81.6,98.9,83.9,97.9,86.1,98.5L86.1,98.5z"/>
	<path class="st18" d="M104.9,53.5l-5.1,13.9l-12.8,35.1c-0.6,1.7-2.5,2.6-4.2,1.9c-1.7-0.6-2.6-2.5-2-4.2l13.2-36.2l4.7-12.8
		c0.5-1.3,1.7-2.1,3.1-2.1c0.4,0,0.7,0.1,1.1,0.2C104.7,50,105.6,51.8,104.9,53.5z"/>
	<path class="st19" d="M104.9,53.5l-5.1,13.9l-5.7-3.3l4.7-12.8c0.5-1.3,1.7-2.1,3.1-2.1c0.4,0,0.7,0.1,1.1,0.2
		C104.7,50,105.6,51.8,104.9,53.5z"/>
	<circle class="st14" cx="112.9" cy="93.9" r="15"/>
	<path class="st14" d="M106,166.4l-0.2,0c-2.7,0-4.8-2.2-4.8-4.8l0-62.5l9.8,0l0,62.5C110.8,164.3,108.6,166.4,106,166.4z"/>
	<path class="st14" d="M122.1,166.4l-0.2,0c-2.7,0-4.8-2.2-4.8-4.8l0-62.5l9.8,0l0,62.5C126.9,164.3,124.8,166.4,122.1,166.4z"/>
	<path class="st20" d="M110.9,158.7l-11.3,0c-4.7,0-8.5,3.8-8.5,8.5l0,0l19.7,0L110.9,158.7z"/>
	<path class="st21" d="M127,158.7l-11.3,0c-4.7,0-8.5,3.8-8.5,8.5l0,0l19.7,0L127,158.7z"/>
	<path class="st19" d="M127.9,94.7l-30,0l0-40c0-4.1,3.3-7.5,7.5-7.5l15.1,0c4.1,0,7.5,3.3,7.5,7.5L127.9,94.7z"/>
	<path class="st18" d="M140.5,99.3c-1.4,0.4-2.5,1.5-3,2.8c-0.1,0.3-0.3,0.7-0.6,1.2c-1.2,2-0.4,2.9,0.7,3c1.1,0.1,0.9-2.2,2.7-1.5
		c1.8,0.6-1.3,6.4,2.4,6.1c3.1-0.2,6.3-2.9,3.3-9.2C145,99.7,142.7,98.6,140.5,99.3L140.5,99.3z"/>
	<path class="st18" d="M121.2,32.1l-17.6,0l0-5.5l17.6,0c1.5,0,2.8,1.2,2.8,2.8v0C123.9,30.9,122.7,32.1,121.2,32.1z"/>
	<path class="st18" d="M115.6,42.5l-11.2,0c-2.6,0-4.7-2.1-4.7-4.7l0-17.9c0-2.6,2.1-4.7,4.7-4.7l11.2,0c2.6,0,4.7,2.1,4.7,4.7
		l0,17.9C120.3,40.4,118.2,42.5,115.6,42.5z"/>
	<path class="st18" d="M113.8,52.4l-4.4,0c-2,0-3.6-1.6-3.6-3.6l0-13.6l11.7,0l0,13.6C117.5,50.8,115.8,52.4,113.8,52.4z"/>
	<path class="st18" d="M143.2,105c-1.7,0.6-3.6-0.3-4.2-2l-13.4-36.8l-4.4-12.2c-0.6-1.7,0.3-3.6,2-4.2c0.4-0.1,0.7-0.2,1.1-0.2
		c1.3,0,2.6,0.8,3.1,2.1l4.3,11.7l13.6,37.3C145.8,102.5,144.9,104.4,143.2,105z"/>
	<path class="st19" d="M131.6,63.6c-2.1,1-4.4,2-6,2.7l-4.4-12.2c-0.6-1.7,0.3-3.6,2-4.2c0.4-0.1,0.7-0.2,1.1-0.2
		c1.3,0,2.6,0.8,3.1,2.1L131.6,63.6z"/>
	<path class="st22" d="M118.8,27L118.8,27c-0.7,0.1-1.3,0.7-1.3,1.4l0,5.4c0,0.8-0.6,1.5-1.5,1.5h-14.9c-0.8,0-1.5,0.6-1.5,1.5v7.6
		c0,0.8,0.6,1.4,1.4,1.4c2.8,0,8.9,0,12.5,0c1.8,0,3.4-0.9,4.4-2.4c0.8-1.2,1.6-2.5,2-3.1c0.2-0.2,0.3-0.5,0.3-0.8l0.1-11
		C120.4,27.6,119.6,26.9,118.8,27z"/>
	<polygon class="st23" points="134.8,24.4 85,24.4 82.6,21.9 137.2,21.9 	"/>
	<path class="st23" d="M121,21.9H98.2v0c0-5.4,4.4-9.8,9.8-9.8h3.3C116.6,12.2,121,16.5,121,21.9L121,21.9z"/>
</g>
<g>
	<path class="st1" d="M62.6,99.2L62.6,99.2c-1.6,0.6-3.5-0.2-4-1.9L42.1,52.1c-0.6-1.6,0.2-3.5,1.9-4l0,0c1.6-0.6,3.5,0.2,4,1.9
		l16.4,45.2C65.1,96.8,64.2,98.6,62.6,99.2z"/>
	<path class="st24" d="M60.4,92.9c-1.5-0.1-2.9,0.6-3.9,1.8c-0.2,0.3-0.6,0.6-1,1c-1.9,1.6-1.4,2.8-0.4,3.2s1.6-1.8,3.2-0.6
		s-3.4,5.9,0.3,6.8c3.1,0.8,7.1-0.8,6.4-8C64.7,94.7,62.7,92.9,60.4,92.9L60.4,92.9z"/>
	<path class="st25" d="M45.7,20.9c0,0,6.1,3.5,5.1,7.9s0.5,4.9,2.3,6.8s3.7,7.9,0,9.1s-0.8,2.9-5,4.4c-4.2,1.5-5.6,0.5-8.7-2
		c-3.2-2.5-3-10.9-3-10.9L45.7,20.9z"/>
	<path class="st1" d="M29.2,165.6L29.2,165.6c2.6,0,4.7-2.1,4.7-4.7l0-58.5c0-2.6-2.1-4.7-4.7-4.7h0c-2.6,0-4.7,2.1-4.7,4.7l0,58.5
		C24.4,163.4,26.5,165.6,29.2,165.6z"/>
	
		<rect x="24.4" y="92.3" transform="matrix(-1 1.479055e-04 -1.479055e-04 -1 58.2575 246.5079)" class="st24" width="9.5" height="61.9"/>
	
		<rect x="24.4" y="148.3" transform="matrix(-1 1.479064e-04 -1.479064e-04 -1 58.2699 302.5029)" class="st26" width="9.5" height="5.9"/>
	<path class="st1" d="M42.4,165.6L42.4,165.6c2.6,0,4.7-2.1,4.7-4.7l0-63.3l-9.5,0l0,63.3C37.6,163.4,39.7,165.6,42.4,165.6z"/>
	
		<rect x="37.6" y="98.5" transform="matrix(-1 1.479069e-04 -1.479069e-04 -1 84.7273 252.7195)" class="st24" width="9.5" height="55.6"/>
	
		<rect x="37.6" y="148.3" transform="matrix(-1 1.479064e-04 -1.479064e-04 -1 84.7384 302.497)" class="st26" width="9.5" height="5.9"/>
	<path class="st1" d="M37.6,157.9v6.3c0,1.2,0.9,2.1,2.1,2.1h16.4c0-3.8-2.5-6.9-5.9-8c-0.8-0.2-1.6-0.4-2.5-0.4H37.6z"/>
	<path class="st27" d="M37.6,160v4.2c0,1.2,0.9,2.1,2.1,2.1h16.4c0-3.8-2.5-6.9-5.9-8v0.9c0,1.8-1.5,3.3-3.3,3.3H42
		c-1.2,0-2.4-0.5-3.2-1.4L37.6,160z"/>
	<path class="st1" d="M24.4,157.9h10.1c4.6,0,8.4,3.7,8.4,8.4l0,0H26.5c-1.2,0-2.1-0.9-2.1-2.1V157.9z"/>
	<path class="st27" d="M24.4,160v4.2c0,1.2,0.9,2.1,2.1,2.1h16.4c0-3.8-2.5-6.9-5.9-8v0.9c0,1.8-1.5,3.3-3.3,3.3h-4.9
		c-1.2,0-2.4-0.5-3.2-1.4L24.4,160z"/>
	<path class="st24" d="M24.3,90.8c0,8.4,5.7,12.7,12.7,12.7c7,0,12.7-5.7,12.7-12.7c0-7-5.7-12.7-12.7-12.7S24.3,83.2,24.3,90.8z"/>
	<g>
		<path class="st26" d="M31.8,93.5c-0.8,2.4-3.1,3.7-5.5,3.1c-0.4-0.1-0.2-0.7,0.2-0.6c2.1,0.5,4-0.6,4.7-2.6
			C31.3,93,32,93.1,31.8,93.5L31.8,93.5z"/>
	</g>
	<g>
		<path class="st1" d="M33.3,49.6c0.1-0.5,0.1-1,0.2-1.4c0-0.5,0.1-0.9,0.1-1.3c0-0.4,0.1-0.8,0.1-1.2c0-0.4,0-0.8,0-1.2
			c0-0.4,0-0.8,0-1.1c0-0.4,0-0.8,0-1.1c0-0.4,0-0.8,0-1.2c0-0.4,0-0.8-0.1-1.2c0-0.4-0.1-0.9-0.1-1.3c0-0.5-0.1-0.9-0.2-1.4
			c0.5-0.1,0.9-0.2,1.4-0.2c0.4-0.1,0.8-0.1,1.2-0.1c0.4,0,0.8-0.1,1.2-0.1c0.4,0,0.7,0,1.1,0s0.7,0,1.1,0s0.7,0,1.1,0
			c0.4,0,0.8,0,1.2,0.1c0.4,0,0.8,0.1,1.2,0.1c0.4,0.1,0.9,0.1,1.4,0.2c-0.1,0.5-0.1,1-0.2,1.4c0,0.5-0.1,0.9-0.1,1.3
			c0,0.4-0.1,0.8-0.1,1.2s0,0.8,0,1.2c0,0.4,0,0.8,0,1.1c0,0.4,0,0.8,0,1.1c0,0.4,0,0.8,0,1.2c0,0.4,0,0.8,0.1,1.2
			c0,0.4,0.1,0.9,0.1,1.3c0,0.5,0.1,0.9,0.2,1.4C44.1,49.6,40.1,54.1,33.3,49.6z"/>
	</g>
	<path class="st1" d="M40.2,44.7L40.2,44.7c5.3,0,9.6-4.3,9.6-9.6v-6.6c0-5.3-4.3-9.6-9.6-9.6h0c-5.3,0-9.6,4.3-9.6,9.6v6.6
		C30.6,40.4,34.9,44.7,40.2,44.7z"/>
	<path class="st25" d="M50.7,25.2c0,0,0.5-4.2-2.4-5.8s-3.1,1-4.6-3c-1.4-3.9-5.5-4-7.1-1.2s-2.5,4.5-5.3,3.2
		c-2.8-1.3-2.9,3.4-3.6,5.9c-0.8,2.5-0.5,2.1-3.2,5.1s-2.9,7.5-2.3,10.5c0.6,3-1.4,3.7-1,7s0.9,7.6,3.3,7.3s1.3-3.7,3.8-3.1
		s1.9-2.7,4.1-2.4c2.2,0.4,2.5-2.2,2.6-5.5c0.1-3.3-1.1-3.3-0.4-6.9c0.7-3.6-0.2-5.9,1.7-6.3c1.9-0.5,3.7-1.3,3.7-4s0.9-3.5,2.4-1.7
		c1.5,1.7,2.2,2.9,4.5,3.4C49.2,28,50.4,27.2,50.7,25.2z"/>
	<path class="st1" d="M24.3,91.6l25.3,0c0.5-2.9-2.7-12.3-3.4-16.1s4.9-5.8,5.7-10s-1.7-5.8-2.7-9.6c-0.4-1.4-0.6-3-0.6-4.5
		c-0.1-1.4-0.6-2.6-1.4-3.4c-0.1-0.1-0.2-0.2-0.4-0.4C46,47,45,46.6,44,46.6l-12.7,0c-3.7,0-6.7,3.3-6.7,7.5l0,3.5
		c0,5.5,3.9,13.3,2.4,18.3C25.4,81.2,24.2,89.2,24.3,91.6z"/>
	<path class="st23" d="M24.3,91.6l25.4,0c0.6-2.3-2.7-12.3-3.4-16.1c-0.7-3.8,5-5.8,5.7-10c0.8-4.2-1.7-5.8-2.8-9.6
		c-0.4-1.4-0.6-3-0.6-4.5c-0.1-1.4-0.6-2.6-1.4-3.4c-0.1-0.1-0.2-0.2-0.4-0.4c0,2.4-0.1,5.7-0.9,7.4c-1.4,2.9-4,6.1-4,6.1
		s-8.5-4.6-10.2-14.6l-0.3,0c-3.7,0-6.7,3.3-6.7,7.5l0,3.5c0,5.5,3.9,13.3,2.4,18.3C25.3,81.2,24.1,89.2,24.3,91.6z"/>
	<path class="st1" d="M10.6,100.2L10.6,100.2c1.6,0.6,3.5-0.2,4-1.9l16.4-45.2c0.6-1.6-0.2-3.5-1.9-4l0,0c-1.6-0.6-3.5,0.2-4,1.9
		L8.7,96.1C8.1,97.8,9,99.6,10.6,100.2z"/>
	<path class="st24" d="M12.9,93.8c1.5-0.1,2.9,0.6,3.9,1.8c0.2,0.3,0.6,0.6,1,1c1.9,1.6,1.4,2.8,0.4,3.2s-1.6-1.8-3.2-0.6
		s3.4,5.9-0.3,6.8c-3.1,0.8-7.1-0.8-6.4-8C8.5,95.7,10.5,93.9,12.9,93.8L12.9,93.8z"/>
</g>
<g>
	<path class="st18" d="M241.2,106L241.2,106c1.6,0.5,3.2-0.3,3.7-1.9l14.3-42.7c0.5-1.6-0.3-3.2-1.9-3.7l0,0
		c-1.6-0.5-3.2,0.3-3.7,1.9l-14.3,42.7C238.8,103.8,239.6,105.4,241.2,106z"/>
	<path class="st14" d="M243.1,100c1.4-0.1,2.8,0.5,3.7,1.6c0.2,0.3,0.5,0.6,0.9,0.9c1.8,1.4,1.3,2.6,0.4,3c-0.9,0.4-1.6-1.7-3-0.5
		s3.3,5.4-0.1,6.4c-2.9,0.8-6.7-0.6-6.2-7.3C239.1,101.8,240.9,100.1,243.1,100L243.1,100z"/>
	<path class="st18" d="M271.6,166.7L271.6,166.7c-2.5,0-4.4-2-4.4-4.4l0-54.9c0-2.5,2-4.4,4.4-4.4l0,0c2.5,0,4.4,2,4.4,4.4l0,54.9
		C276,164.7,274,166.7,271.6,166.7z"/>
	<rect x="267.2" y="98" class="st23" width="8.9" height="28"/>
	<rect x="267.2" y="123.4" class="st28" width="8.9" height="2.7"/>
	<path class="st18" d="M259.2,166.7L259.2,166.7c-2.5,0-4.4-2-4.4-4.4l0-59.3l8.9,0l0,59.3C263.6,164.7,261.7,166.7,259.2,166.7z"/>
	<rect x="254.8" y="102.9" class="st23" width="8.9" height="23.1"/>
	<rect x="254.8" y="123.6" class="st28" width="8.9" height="2.4"/>
	<path class="st18" d="M263.7,159.5v5.9c0,1.1-0.9,2-2,2h-15.3c0-3.5,2.3-6.5,5.5-7.5c0.7-0.2,1.5-0.3,2.3-0.3H263.7z"/>
	<path class="st29" d="M263.7,161.4v4c0,1.1-0.9,2-2,2h-15.3c0-3.5,2.3-6.5,5.5-7.5v0.9c0,1.7,1.4,3.1,3.1,3.1h4.6
		c1.1,0,2.2-0.5,3-1.3L263.7,161.4z"/>
	<path class="st18" d="M276,159.5h-9.5c-4.3,0-7.8,3.5-7.8,7.8v0h15.3c1.1,0,2-0.9,2-2V159.5z"/>
	<path class="st14" d="M276,161.4v4c0,1.1-0.9,2-2,2h-15.3c0-3.5,2.3-6.5,5.5-7.5v0.9c0,1.7,1.4,3.1,3.1,3.1h4.6
		c1.1,0,2.2-0.5,3-1.3L276,161.4z"/>
	<g>
		<path class="st23" d="M276.1,96.9c-0.2,7.8-5.6,11.8-12.2,11.6c-6.6-0.2-11.7-5.6-11.6-12.2c0.2-6.6,5.6-11.7,12.2-11.6
			S276.3,89.7,276.1,96.9z"/>
		<g>
			<path class="st23" d="M269,99.2c0.7,2.3,2.8,3.5,5.1,3c0.4-0.1,0.2-0.7-0.1-0.6c-2,0.4-3.8-0.7-4.3-2.6
				C269.5,98.7,268.9,98.8,269,99.2L269,99.2z"/>
		</g>
	</g>
	<g>
		<path class="st18" d="M268.7,58c0-0.5-0.1-0.9-0.1-1.4c0-0.4-0.1-0.8-0.1-1.2c0-0.4,0-0.8,0-1.2c0-0.4,0-0.7,0-1.1
			c0-0.4,0-0.7,0-1.1c0-0.4,0-0.7,0-1.1c0-0.4,0-0.7,0.1-1.1c0-0.4,0.1-0.8,0.1-1.2c0-0.4,0.1-0.8,0.1-1.2c0.1-0.4,0.1-0.9,0.2-1.3
			c-0.4-0.1-0.9-0.2-1.3-0.2c-0.4-0.1-0.8-0.1-1.2-0.2c-0.4,0-0.7-0.1-1.1-0.1c-0.3,0-0.7,0-1-0.1s-0.7,0-1,0c-0.3,0-0.7,0-1,0
			c-0.4,0-0.7,0-1.1,0.1c-0.4,0-0.8,0.1-1.2,0.1c-0.4,0-0.8,0.1-1.3,0.2c0,0.5,0.1,0.9,0.1,1.4c0,0.4,0.1,0.8,0.1,1.2
			c0,0.4,0,0.8,0,1.2c0,0.4,0,0.7,0,1.1c0,0.4,0,0.7,0,1.1c0,0.4,0,0.7,0,1.1c0,0.4,0,0.7-0.1,1.1c0,0.4-0.1,0.8-0.1,1.2
			c0,0.4-0.1,0.8-0.1,1.2c-0.1,0.4-0.1,0.9-0.2,1.3C258.6,57.8,262.2,62,268.7,58z"/>
	</g>
	<path class="st24" d="M255.7,35.5c0,0-4.1,2.6-3.5,5.9s-0.4,3.7-1.6,5.1s-2.6,5.9-0.2,6.9c2.4,0.9,0.5,2.2,3.2,3.4
		c2.7,1.2,3.6,0.5,5.7-1.3c2.1-1.8,2.1-8.1,2.1-8.1L255.7,35.5z"/>
	<path class="st18" d="M262.3,53.3L262.3,53.3c-5-0.1-8.9-4.3-8.8-9.2l0.2-6.2c0.1-5,4.3-8.9,9.2-8.8h0c5,0.1,8.9,4.3,8.8,9.2
		l-0.2,6.2C271.4,49.5,267.3,53.4,262.3,53.3z"/>
	<path class="st24" d="M254.4,35.2c0,0-1.5-3.1,1.3-4.2c2.8-1.1,2.1,1,3.5-1.8c1.4-2.8,5.3-2.8,6.7-0.7c1.4,2.1,1.3,3.3,3.9,2.3
		c2.6-0.9,1.3,5.3,2,7.2c0.7,1.8,0,3.3,2.4,5.5s2.7,2.1,2.1,4.3c-0.6,2.2,3.9,1.7,3.4,4.1c-0.5,2.4-0.8,4.3-3,4.1
		c-2.2-0.3-1.7,0-4,0.3c-2.3,0.4-2-1-4-0.8c-2.1,0.2-1.8-4.2-1.8-6.6c0-2.4,1.1-2.4,0.5-5c-0.6-2.7,0.3-4.3-1.5-4.7
		c-1.8-0.4-3.4-1.1-3.4-3c0-2-0.8-2.5-2.2-1.3c-1.5,1.2-2.2,2-4.3,2.3C253.8,37.5,254.6,36.7,254.4,35.2z"/>
	<path class="st18" d="M276.1,97.6L252.4,97c-0.4-2.8,2.8-11.4,3.6-15c0.8-3.6-4.5-5.6-5.1-9.5c-0.6-4,1.7-5.4,2.8-8.9
		c0.4-1.3,0.6-2.8,0.7-4.2c0.1-1.3,0.6-2.4,1.4-3.2c0.1-0.1,0.2-0.2,0.4-0.3c0.7-0.6,1.7-0.9,2.6-0.9l11.9,0.3
		c3.5,0.1,6.2,3.3,6.1,7.1l-0.1,3.3c-0.1,5.2-3.9,12.4-2.7,17.1C275.3,87.9,276.3,95.4,276.1,97.6z"/>
	<path class="st30" d="M276.1,97.6L252.3,97c-0.5-2.2,2.8-11.4,3.6-15c0.8-3.6-4.5-5.6-5.1-9.5c-0.6-4,1.7-5.4,2.8-8.9
		c0.4-1.3,0.6-2.8,0.7-4.2c0.1-1.3,0.6-2.4,1.4-3.2c0.1-0.1,0.2-0.2,0.4-0.3c-0.1,2.3,0,5.4,0.7,7c1.2,2.8,3.6,5.8,3.6,5.8
		s8.1-4.1,9.9-13.4l0.3,0c3.5,0.1,6.2,3.3,6.1,7.1l-0.1,3.3c-0.1,5.2-4,12.4-2.7,17.1C275.4,87.9,276.3,95.4,276.1,97.6z"/>
	<path class="st18" d="M288.7,106L288.7,106c-1.6,0.5-3.2-0.3-3.7-1.9l-14.3-42.7c-0.5-1.6,0.3-3.2,1.9-3.7l0,0
		c1.6-0.5,3.2,0.3,3.7,1.9l14.3,42.7C291.1,103.8,290.2,105.4,288.7,106z"/>
	<path class="st14" d="M286.8,100c-1.4-0.1-2.8,0.5-3.7,1.6c-0.2,0.3-0.5,0.6-0.9,0.9c-1.8,1.4-1.3,2.6-0.4,3c0.9,0.4,1.6-1.7,3-0.5
		c1.4,1.2-3.3,5.4,0.1,6.4c2.9,0.8,6.7-0.6,6.2-7.3C290.8,101.8,289,100.1,286.8,100L286.8,100z"/>
	<path class="st14" d="M271.7,38l-18.3-0.5l0.1-5.1c0.1-5.1,4.3-6.8,9.3-6.7v0c5.1,0.1,9.1,2.1,9,7.2L271.7,38z"/>
</g>
</svg>
