<?xml version="1.0" encoding="utf-8"?>
<!-- Generator: Adobe Illustrator 21.0.0, SVG Export Plug-In . SVG Version: 6.00 Build 0)  -->
<svg version="1.1" id="menu_1_" xmlns="http://www.w3.org/2000/svg" xmlns:xlink="http://www.w3.org/1999/xlink" x="0px" y="0px"
	 viewBox="0 0 65.2 51.2" style="enable-background:new 0 0 65.2 51.2;" xml:space="preserve">
<style type="text/css">
	.st0{filter:url(#Adobe_OpacityMaskFilter);}
	.st1{mask:url(#Preenchimento_de_Cor_1_xA0_Imagem_2_);}
	.st2{fill-rule:evenodd;clip-rule:evenodd;fill:#FFFFFF;}
	.st3{fill-rule:evenodd;clip-rule:evenodd;fill:#222221;}
	.st4{fill:#FFFFFF;}
	.st5{fill:#222221;}
</style>
<defs>
	<filter id="Adobe_OpacityMaskFilter" filterUnits="userSpaceOnUse" x="-195.9" y="-78.8" width="329" height="51.2">
		<feColorMatrix  type="matrix" values="1 0 0 0 0  0 1 0 0 0  0 0 1 0 0  0 0 0 1 0"/>
	</filter>
</defs>
<mask maskUnits="userSpaceOnUse" x="-195.9" y="-78.8" width="329" height="51.2" id="Preenchimento_de_Cor_1_xA0_Imagem_2_">
</mask>
<g id="Preenchimento_de_Cor_1_xA0_Imagem_1_" class="st1">
</g>
<g id="Forma_724_2_">
	<g>
		<path class="st3" d="M37.6,17.1c0-0.5-0.3-1.2-0.6-1.6l-1.7-2.1c0.3-0.1,0.4-0.3,0.4-0.6c0-0.3-0.2-0.5-0.5-0.6v-2
			c0-0.3-0.3-0.6-0.6-0.6h-4c-0.4,0-0.6,0.3-0.6,0.6v2c-0.3,0.1-0.5,0.3-0.5,0.6c0,0.3,0.2,0.5,0.4,0.6l-1.7,2.1
			c-0.3,0.4-0.6,1.1-0.6,1.6v1.4c0,0.4,0.1,0.8,0.4,1.2c-0.2,0.3-0.4,0.7-0.4,1.2v1.4c0,0.4,0.1,0.8,0.4,1.2
			c-0.2,0.3-0.4,0.8-0.4,1.2v4.9c0,1.1,0.9,2.1,2.1,2.1h5.8c1.1,0,2.1-0.9,2.1-2.1v-4.9c0-0.4-0.1-0.8-0.4-1.2
			c0.2-0.3,0.4-0.7,0.4-1.2v-1.4c0-0.4-0.1-0.8-0.4-1.2c0.2-0.3,0.4-0.7,0.4-1.2V17.1z M30.1,12.7h0.3v-2.4c0-0.1,0.1-0.2,0.2-0.2h4
			c0.1,0,0.2,0.1,0.2,0.2v2.4h0.3c0.1,0,0.2,0.1,0.2,0.2S35.2,13,35.1,13h-4.9c-0.1,0-0.2-0.1-0.2-0.2S30.1,12.7,30.1,12.7z
			 M37.1,18.5c0,0.4-0.1,0.7-0.4,1l-0.1,0.2l0.1,0.2c0.2,0.3,0.4,0.6,0.4,1v1.4c0,0.4-0.1,0.7-0.4,1l-0.1,0.2l0.1,0.2
			c0.2,0.3,0.4,0.6,0.4,1v4.9c0,0.9-0.7,1.6-1.6,1.6h-5.8c-0.9,0-1.6-0.7-1.6-1.6v-4.9c0-0.4,0.1-0.7,0.4-1l0.1-0.2l-0.1-0.2
			c-0.2-0.3-0.4-0.6-0.4-1v-1.4c0-0.4,0.1-0.7,0.4-1l0.1-0.2l-0.1-0.2c-0.2-0.3-0.4-0.6-0.4-1v-1.4c0-0.4,0.2-1,0.5-1.3l1.9-2.3
			c0,0,0.1-0.1,0.1-0.1h4c0,0,0.1,0,0.1,0.1l1.9,2.3c0.3,0.3,0.5,0.9,0.5,1.3V18.5z"/>
	</g>
</g>
<g id="Menu">
</g>
<g id="Cadastro">
</g>
<g id="Mapa">
</g>
<g id="Materiais">
	<g>
		<path class="st5" d="M18.9,45.1H18v-4.3c0-0.3,0-0.5,0-0.8c-0.1,0.2-0.2,0.5-0.3,0.8l-1.9,4.4l-1.9-4.4c-0.2-0.4-0.3-0.6-0.3-0.8
			c0,0.2,0,0.4,0,0.8v4.3h-0.9v-7h0.8l2,4.7l0.2,0.5c0-0.1,0.1-0.2,0.2-0.5l2-4.7h0.8V45.1z"/>
		<path class="st5" d="M23.6,45.1v-0.5c-0.4,0.4-0.9,0.6-1.5,0.6c-0.5,0-1-0.1-1.3-0.4c-0.3-0.3-0.5-0.7-0.5-1.3
			c0-0.6,0.2-1,0.5-1.3c0.4-0.3,0.8-0.4,1.4-0.4c0.5,0,0.9,0.1,1.3,0.3v-0.4c0-0.4-0.1-0.7-0.3-0.9c-0.2-0.2-0.5-0.3-0.8-0.3
			c-0.5,0-1,0.2-1.5,0.5l-0.2-0.7c0.5-0.4,1.2-0.5,1.8-0.5c1.2,0,1.8,0.6,1.8,1.8v3.4H23.6z M22.3,44.4c0.5,0,0.9-0.2,1.3-0.7v-0.9
			c-0.4-0.2-0.8-0.3-1.2-0.3c-0.4,0-0.6,0.1-0.9,0.2c-0.2,0.2-0.3,0.4-0.3,0.7c0,0.3,0.1,0.5,0.3,0.7C21.6,44.4,21.9,44.4,22.3,44.4
			z"/>
		<path class="st5" d="M27.3,45.2c-0.7,0-1.1-0.4-1.1-1.2v-3.2h-0.8V40h0.8v-1.7l0.9-0.4V40h1.3v0.8h-1.3v3c0,0.2,0,0.4,0.1,0.5
			c0.1,0.1,0.2,0.2,0.4,0.2c0.2,0,0.5-0.1,0.8-0.3L28.3,45C28,45.1,27.7,45.2,27.3,45.2z"/>
		<path class="st5" d="M31.5,45.2c-0.7,0-1.2-0.2-1.7-0.7c-0.4-0.5-0.6-1.1-0.6-1.9c0-0.8,0.2-1.5,0.6-2c0.4-0.5,1-0.7,1.6-0.7
			c0.6,0,1.1,0.2,1.5,0.6c0.4,0.4,0.6,1,0.6,1.8c0,0.2,0,0.4,0,0.6h-3.5c0,0.5,0.2,0.8,0.4,1.1c0.3,0.3,0.6,0.4,1,0.4
			c0.4,0,0.8-0.2,1.1-0.5l0.5,0.6C32.7,45,32.2,45.2,31.5,45.2z M30.1,42.1h2.6c0-0.5-0.1-0.9-0.4-1.1c-0.2-0.2-0.5-0.4-0.9-0.4
			c-0.4,0-0.7,0.1-1,0.4C30.3,41.3,30.2,41.6,30.1,42.1z"/>
		<path class="st5" d="M34.9,45.1V40h0.9v0.7c0.2-0.5,0.6-0.8,1.2-0.8c0.3,0,0.6,0.1,0.8,0.3l-0.1,0.8c-0.2-0.1-0.5-0.2-0.7-0.2
			c-0.3,0-0.6,0.1-0.8,0.4c-0.2,0.2-0.3,0.6-0.3,1.1v2.9H34.9z"/>
		<path class="st5" d="M39.6,38.9C39.5,39,39.4,39,39.2,39s-0.3-0.1-0.4-0.2s-0.2-0.2-0.2-0.4c0-0.2,0.1-0.3,0.2-0.4
			c0.1-0.1,0.2-0.2,0.4-0.2c0.2,0,0.3,0.1,0.4,0.2c0.1,0.1,0.2,0.2,0.2,0.4S39.7,38.8,39.6,38.9z M38.8,45.1V40h0.9v5.1H38.8z"/>
		<path class="st5" d="M44.2,45.1v-0.5c-0.4,0.4-0.9,0.6-1.5,0.6c-0.5,0-1-0.1-1.3-0.4C41.2,44.5,41,44,41,43.5c0-0.6,0.2-1,0.5-1.3
			c0.4-0.3,0.8-0.4,1.4-0.4c0.5,0,0.9,0.1,1.3,0.3v-0.4c0-0.4-0.1-0.7-0.3-0.9c-0.2-0.2-0.5-0.3-0.8-0.3c-0.5,0-1,0.2-1.5,0.5
			l-0.2-0.7c0.5-0.4,1.2-0.5,1.8-0.5c1.2,0,1.8,0.6,1.8,1.8v3.4H44.2z M42.9,44.4c0.5,0,0.9-0.2,1.3-0.7v-0.9
			c-0.4-0.2-0.8-0.3-1.2-0.3c-0.4,0-0.6,0.1-0.9,0.2c-0.2,0.2-0.3,0.4-0.3,0.7c0,0.3,0.1,0.5,0.3,0.7C42.3,44.4,42.6,44.4,42.9,44.4
			z"/>
		<path class="st5" d="M47.4,38.9C47.3,39,47.2,39,47,39s-0.3-0.1-0.4-0.2s-0.2-0.2-0.2-0.4c0-0.2,0.1-0.3,0.2-0.4
			c0.1-0.1,0.2-0.2,0.4-0.2c0.2,0,0.3,0.1,0.4,0.2c0.1,0.1,0.2,0.2,0.2,0.4S47.5,38.8,47.4,38.9z M46.6,45.1V40h0.9v5.1H46.6z"/>
		<path class="st5" d="M50.6,45.2c-0.4,0-0.7-0.1-1-0.2c-0.3-0.2-0.6-0.4-0.8-0.6l0.6-0.5c0.4,0.4,0.8,0.6,1.2,0.6
			c0.3,0,0.5-0.1,0.7-0.2c0.2-0.1,0.3-0.3,0.3-0.5c0-0.2-0.1-0.3-0.2-0.4c-0.1-0.1-0.3-0.2-0.4-0.3c-0.1-0.1-0.3-0.1-0.6-0.2
			c-0.5-0.2-0.9-0.4-1.2-0.6c-0.3-0.2-0.4-0.6-0.4-1c0-0.4,0.2-0.7,0.5-1c0.3-0.2,0.7-0.4,1.2-0.4c0.7,0,1.3,0.3,1.7,0.8l-0.6,0.5
			c-0.3-0.3-0.7-0.5-1.1-0.5c-0.3,0-0.5,0-0.6,0.2c-0.2,0.1-0.2,0.2-0.2,0.4c0,0.1,0,0.2,0.1,0.3c0,0.1,0.1,0.2,0.3,0.2
			s0.2,0.1,0.3,0.2c0.1,0,0.2,0.1,0.4,0.2c0.5,0.2,1,0.4,1.2,0.7c0.3,0.2,0.4,0.6,0.4,1c0,0.5-0.2,0.8-0.5,1.1S51.2,45.2,50.6,45.2z
			"/>
	</g>
</g>
<g id="Ajuda">
</g>
</svg>
