<?xml version="1.0" encoding="utf-8"?>
<!-- Generator: Adobe Illustrator 21.0.0, SVG Export Plug-In . SVG Version: 6.00 Build 0)  -->
<svg version="1.1" id="menu_1_" xmlns="http://www.w3.org/2000/svg" xmlns:xlink="http://www.w3.org/1999/xlink" x="0px" y="0px"
	 viewBox="0 0 65.2 51.2" style="enable-background:new 0 0 65.2 51.2;" xml:space="preserve">
<style type="text/css">
	.st0{filter:url(#Adobe_OpacityMaskFilter);}
	.st1{mask:url(#Preenchimento_de_Cor_1_xA0_Imagem_2_);}
	.st2{fill-rule:evenodd;clip-rule:evenodd;fill:#FFFFFF;}
	.st3{fill-rule:evenodd;clip-rule:evenodd;fill:#222221;}
	.st4{fill:#FFFFFF;}
	.st5{fill:#222221;}
</style>
<defs>
	<filter id="Adobe_OpacityMaskFilter" filterUnits="userSpaceOnUse" x="-261.2" y="-78.6" width="329" height="51.2">
		<feColorMatrix  type="matrix" values="1 0 0 0 0  0 1 0 0 0  0 0 1 0 0  0 0 0 1 0"/>
	</filter>
</defs>
<mask maskUnits="userSpaceOnUse" x="-261.2" y="-78.6" width="329" height="51.2" id="Preenchimento_de_Cor_1_xA0_Imagem_2_">
</mask>
<g id="Preenchimento_de_Cor_1_xA0_Imagem_1_" class="st1">
</g>
<g id="Forma_725_2_">
	<g>
		<path class="st3" d="M37.4,11.5c-1.1-1.2-2.6-1.8-4.7-1.8c-2.2,0-3.9,0.6-5,1.8c-1.5,1.7-1.4,3.9-1.3,4l0.5,0c0,0-0.2-2.1,1.2-3.6
			c1-1.1,2.5-1.6,4.6-1.6c1.9,0,3.4,0.5,4.4,1.6c1.5,1.7,1.3,4.3,1.3,4.3l0,0c0,2.6-2.1,4.2-3.7,5.4c-0.5,0.4-0.9,0.7-1.2,1
			C32,23.9,32,26.7,32,28h0.5c0-1.3,0-3.9,1.3-5.1c0.3-0.3,0.7-0.6,1.2-1c1.6-1.2,3.9-2.9,3.9-5.7C38.8,15.9,39.1,13.4,37.4,11.5z
			 M32.2,30.6c-0.3,0-0.6,0.3-0.6,0.6c0,0.3,0.3,0.6,0.6,0.6s0.6-0.3,0.6-0.6C32.8,30.9,32.5,30.6,32.2,30.6z"/>
	</g>
</g>
<g id="Menu">
</g>
<g id="Cadastro">
</g>
<g id="Mapa">
</g>
<g id="Materiais">
</g>
<g id="Ajuda">
	<g>
		<path class="st5" d="M24.9,44.3l-0.6-1.7h-2.8L21,44.3h-0.9l2.5-7h0.8l2.5,7H24.9z M24.1,41.8l-0.9-2.6c-0.1-0.3-0.2-0.6-0.2-0.7
			c-0.1,0.3-0.1,0.5-0.2,0.7l-0.9,2.6H24.1z"/>
		<path class="st5" d="M26.7,46.4l-0.4-0.7c0.5-0.1,0.8-0.2,1-0.4c0.2-0.2,0.3-0.4,0.3-0.7v-5.5h0.9v5.2c0,0.6-0.1,1.1-0.4,1.4
			C27.8,46.1,27.3,46.3,26.7,46.4z M28.5,38.1c-0.1,0.1-0.2,0.2-0.4,0.2s-0.3-0.1-0.4-0.2c-0.1-0.1-0.2-0.2-0.2-0.4s0.1-0.3,0.2-0.4
			c0.1-0.1,0.2-0.2,0.4-0.2s0.3,0.1,0.4,0.2c0.1,0.1,0.2,0.2,0.2,0.4S28.6,38,28.5,38.1z"/>
		<path class="st5" d="M33.3,44.3v-0.5c-0.3,0.4-0.7,0.6-1.3,0.6c-0.6,0-1.1-0.2-1.4-0.5c-0.3-0.4-0.5-0.9-0.5-1.7v-3H31v3.1
			c0,0.5,0.1,0.8,0.3,1c0.2,0.2,0.5,0.3,0.8,0.3c0.8,0,1.2-0.4,1.2-1.3v-3.1h0.9v5.1H33.3z"/>
		<path class="st5" d="M37.6,44.4c-0.6,0-1.2-0.2-1.5-0.7c-0.4-0.5-0.6-1.1-0.6-2c0-0.8,0.2-1.5,0.6-2c0.4-0.5,0.9-0.7,1.5-0.7
			c0.5,0,0.9,0.2,1.3,0.5v-2.1l0.9-0.4v7.2h-0.9v-0.4C38.6,44.2,38.1,44.4,37.6,44.4z M37.7,43.6c0.5,0,0.9-0.2,1.2-0.7v-2.4
			c-0.3-0.4-0.7-0.6-1.2-0.6c-0.4,0-0.8,0.2-1,0.5c-0.2,0.3-0.3,0.8-0.3,1.4c0,0.5,0.1,1,0.4,1.3C37,43.4,37.3,43.6,37.7,43.6z"/>
		<path class="st5" d="M44.3,44.3v-0.5c-0.4,0.4-0.9,0.6-1.5,0.6c-0.5,0-1-0.1-1.3-0.4c-0.3-0.3-0.5-0.7-0.5-1.3
			c0-0.6,0.2-1,0.5-1.3C42,41.1,42.5,41,43,41c0.5,0,0.9,0.1,1.3,0.3v-0.4c0-0.4-0.1-0.7-0.3-0.9c-0.2-0.2-0.5-0.3-0.8-0.3
			c-0.5,0-1,0.2-1.5,0.5l-0.2-0.7c0.5-0.4,1.2-0.5,1.8-0.5c1.2,0,1.8,0.6,1.8,1.8v3.4H44.3z M43,43.6c0.5,0,0.9-0.2,1.3-0.7v-0.9
			c-0.4-0.2-0.8-0.3-1.2-0.3c-0.4,0-0.6,0.1-0.9,0.2c-0.2,0.2-0.3,0.4-0.3,0.7c0,0.3,0.1,0.5,0.3,0.7C42.4,43.5,42.7,43.6,43,43.6z"
			/>
	</g>
</g>
</svg>
