<?xml version="1.0" encoding="utf-8"?>
<!-- Generator: Adobe Illustrator 21.0.0, SVG Export Plug-In . SVG Version: 6.00 Build 0)  -->
<svg version="1.1" id="menu_1_" xmlns="http://www.w3.org/2000/svg" xmlns:xlink="http://www.w3.org/1999/xlink" x="0px" y="0px"
	 viewBox="0 0 65.2 51.2" style="enable-background:new 0 0 65.2 51.2;" xml:space="preserve">
<style type="text/css">
	.st0{filter:url(#Adobe_OpacityMaskFilter);}
	.st1{mask:url(#Preenchimento_de_Cor_1_xA0_Imagem_2_);}
	.st2{fill-rule:evenodd;clip-rule:evenodd;fill:#FFFFFF;}
	.st3{fill-rule:evenodd;clip-rule:evenodd;fill:#222221;}
	.st4{fill:#FFFFFF;}
	.st5{fill:#222221;}
</style>
<defs>
	<filter id="Adobe_OpacityMaskFilter" filterUnits="userSpaceOnUse" x="-65.3" y="-78.8" width="329" height="51.2">
		<feColorMatrix  type="matrix" values="1 0 0 0 0  0 1 0 0 0  0 0 1 0 0  0 0 0 1 0"/>
	</filter>
</defs>
<mask maskUnits="userSpaceOnUse" x="-65.3" y="-78.8" width="329" height="51.2" id="Preenchimento_de_Cor_1_xA0_Imagem_2_">
</mask>
<g id="Preenchimento_de_Cor_1_xA0_Imagem_1_" class="st1">
</g>
<g id="Forma_727_2_">
	<g>
		<polygon class="st3" points="42.7,20.3 32.9,20.3 32.9,10.6 32.4,10.6 32.4,20.3 22.5,20.3 22.5,20.8 32.4,20.8 32.4,30.5 
			32.9,30.5 32.9,20.8 42.7,20.8 		"/>
	</g>
</g>
<g id="Menu">
</g>
<g id="Cadastro">
	<g>
		<path class="st5" d="M15.9,45.3c-0.5,0-1-0.1-1.3-0.3c-0.4-0.2-0.7-0.5-0.9-0.8c-0.2-0.4-0.4-0.7-0.5-1.1C13,42.6,13,42.1,13,41.7
			c0-0.5,0.1-0.9,0.2-1.3c0.1-0.4,0.3-0.8,0.5-1.1c0.2-0.4,0.5-0.6,0.9-0.8s0.8-0.3,1.3-0.3c1.1,0,1.8,0.4,2.3,1.3l-0.8,0.4
			c-0.2-0.3-0.4-0.5-0.6-0.6c-0.2-0.1-0.5-0.2-0.9-0.2c-0.5,0-0.9,0.1-1.2,0.4c-0.3,0.3-0.5,0.7-0.6,1.1s-0.2,0.8-0.2,1.3
			c0,0.8,0.2,1.4,0.5,2c0.3,0.6,0.8,0.8,1.5,0.8s1.2-0.3,1.5-0.9l0.8,0.3c-0.2,0.4-0.5,0.8-0.9,1S16.4,45.3,15.9,45.3z"/>
		<path class="st5" d="M22.5,45.2v-0.5c-0.4,0.4-0.9,0.6-1.4,0.6c-0.5,0-1-0.1-1.3-0.4c-0.3-0.3-0.5-0.7-0.5-1.3
			c0-0.6,0.2-1,0.6-1.3c0.4-0.3,0.8-0.4,1.4-0.4c0.5,0,0.9,0.1,1.3,0.3v-0.4c0-0.4-0.1-0.7-0.3-0.9s-0.5-0.3-0.8-0.3
			c-0.5,0-1,0.2-1.5,0.5l-0.2-0.7c0.5-0.4,1.2-0.5,1.8-0.5c1.2,0,1.8,0.6,1.8,1.8v3.4H22.5z M21.2,44.5c0.5,0,0.9-0.2,1.3-0.7V43
			c-0.4-0.2-0.8-0.3-1.2-0.3c-0.4,0-0.6,0.1-0.9,0.2s-0.3,0.4-0.3,0.7c0,0.3,0.1,0.5,0.3,0.7C20.6,44.4,20.8,44.5,21.2,44.5z"/>
		<path class="st5" d="M26.6,45.3c-0.6,0-1.2-0.2-1.5-0.7c-0.4-0.5-0.6-1.1-0.6-2c0-0.8,0.2-1.5,0.6-2c0.4-0.5,0.9-0.7,1.5-0.7
			c0.5,0,0.9,0.2,1.3,0.5v-2.1l0.9-0.4v7.2h-0.9v-0.4C27.6,45.1,27.2,45.3,26.6,45.3z M26.8,44.5c0.5,0,0.9-0.2,1.2-0.7v-2.4
			c-0.3-0.4-0.7-0.6-1.2-0.6c-0.4,0-0.8,0.2-1,0.5c-0.2,0.3-0.3,0.8-0.3,1.4c0,0.5,0.1,1,0.4,1.3S26.4,44.5,26.8,44.5z"/>
		<path class="st5" d="M33.4,45.2v-0.5c-0.4,0.4-0.9,0.6-1.4,0.6c-0.5,0-1-0.1-1.3-0.4c-0.3-0.3-0.5-0.7-0.5-1.3
			c0-0.6,0.2-1,0.6-1.3c0.4-0.3,0.8-0.4,1.4-0.4c0.5,0,0.9,0.1,1.3,0.3v-0.4c0-0.4-0.1-0.7-0.3-0.9s-0.5-0.3-0.8-0.3
			c-0.5,0-1,0.2-1.5,0.5l-0.2-0.7c0.5-0.4,1.2-0.5,1.8-0.5c1.2,0,1.8,0.6,1.8,1.8v3.4H33.4z M32.1,44.5c0.5,0,0.9-0.2,1.3-0.7V43
			c-0.4-0.2-0.8-0.3-1.2-0.3c-0.4,0-0.6,0.1-0.9,0.2S31,43.3,31,43.6c0,0.3,0.1,0.5,0.3,0.7C31.5,44.4,31.7,44.5,32.1,44.5z"/>
		<path class="st5" d="M37.2,45.3c-0.4,0-0.7-0.1-1-0.2c-0.3-0.2-0.6-0.4-0.8-0.6l0.6-0.5c0.4,0.4,0.8,0.6,1.2,0.6
			c0.3,0,0.5-0.1,0.7-0.2c0.2-0.1,0.3-0.3,0.3-0.5c0-0.2-0.1-0.3-0.2-0.4c-0.1-0.1-0.3-0.2-0.4-0.3S37.3,43,37,42.9
			c-0.5-0.2-0.9-0.4-1.2-0.6c-0.3-0.2-0.4-0.6-0.4-1c0-0.4,0.2-0.7,0.5-1c0.3-0.2,0.7-0.4,1.2-0.4c0.7,0,1.3,0.3,1.7,0.8l-0.6,0.5
			c-0.3-0.3-0.7-0.5-1.1-0.5c-0.3,0-0.5,0-0.6,0.2c-0.2,0.1-0.2,0.2-0.2,0.4c0,0.1,0,0.2,0.1,0.3c0,0.1,0.1,0.2,0.3,0.2
			c0.1,0.1,0.2,0.1,0.3,0.2c0.1,0,0.2,0.1,0.4,0.2c0.5,0.2,1,0.4,1.2,0.7c0.3,0.2,0.4,0.6,0.4,1c0,0.5-0.2,0.8-0.5,1.1
			S37.8,45.3,37.2,45.3z"/>
		<path class="st5" d="M41.8,45.3c-0.7,0-1.1-0.4-1.1-1.2v-3.2h-0.8v-0.8h0.8v-1.7l0.9-0.4v2.1h1.3v0.8h-1.3v3c0,0.2,0,0.4,0.1,0.5
			s0.2,0.2,0.4,0.2c0.2,0,0.5-0.1,0.8-0.3l-0.1,0.8C42.5,45.2,42.1,45.3,41.8,45.3z"/>
		<path class="st5" d="M44.1,45.2v-5.1H45v0.7c0.2-0.5,0.6-0.8,1.2-0.8c0.3,0,0.6,0.1,0.8,0.3L46.9,41c-0.2-0.1-0.5-0.2-0.7-0.2
			c-0.3,0-0.6,0.1-0.8,0.4S45,41.8,45,42.3v2.9H44.1z"/>
		<path class="st5" d="M51.6,44.6c-0.4,0.5-1,0.7-1.6,0.7s-1.2-0.2-1.6-0.7c-0.4-0.5-0.6-1.1-0.6-2s0.2-1.5,0.6-2
			c0.4-0.5,1-0.7,1.6-0.7s1.2,0.2,1.6,0.7c0.4,0.5,0.6,1.1,0.6,2C52.3,43.4,52.1,44.1,51.6,44.6z M49,44c0.2,0.3,0.6,0.5,1,0.5
			c0.4,0,0.8-0.2,1-0.5c0.2-0.3,0.4-0.8,0.4-1.4c0-0.6-0.1-1-0.4-1.4c-0.2-0.3-0.6-0.5-1-0.5c-0.4,0-0.8,0.2-1,0.5
			c-0.2,0.3-0.4,0.8-0.4,1.4C48.6,43.2,48.7,43.7,49,44z"/>
	</g>
</g>
<g id="Mapa">
</g>
<g id="Materiais">
</g>
<g id="Ajuda">
</g>
</svg>
