<?xml version="1.0" encoding="utf-8"?>
<!-- Generator: Adobe Illustrator 21.0.0, SVG Export Plug-In . SVG Version: 6.00 Build 0)  -->
<svg version="1.1" id="menu_1_" xmlns="http://www.w3.org/2000/svg" xmlns:xlink="http://www.w3.org/1999/xlink" x="0px" y="0px"
	 viewBox="0 0 65.2 51.2" style="enable-background:new 0 0 65.2 51.2;" xml:space="preserve">
<style type="text/css">
	.st0{filter:url(#Adobe_OpacityMaskFilter);}
	.st1{mask:url(#Preenchimento_de_Cor_1_xA0_Imagem_2_);}
	.st2{fill-rule:evenodd;clip-rule:evenodd;fill:#FFFFFF;}
	.st3{fill-rule:evenodd;clip-rule:evenodd;fill:#222221;}
	.st4{fill:#FFFFFF;}
	.st5{fill:#222221;}
</style>
<defs>
	<filter id="Adobe_OpacityMaskFilter" filterUnits="userSpaceOnUse" x="0" y="-78.7" width="329" height="51.2">
		<feColorMatrix  type="matrix" values="1 0 0 0 0  0 1 0 0 0  0 0 1 0 0  0 0 0 1 0"/>
	</filter>
</defs>
<mask maskUnits="userSpaceOnUse" x="0" y="-78.7" width="329" height="51.2" id="Preenchimento_de_Cor_1_xA0_Imagem_2_">
</mask>
<g id="Preenchimento_de_Cor_1_xA0_Imagem_1_" class="st1">
</g>
<g id="Forma_721_2_">
	<g>
		<path class="st3" d="M24.1,13.7v0.5h17v-0.5H24.1z M24.1,21h17v-0.5h-17V21z M24.1,27.8h17v-0.5h-17V27.8z"/>
	</g>
</g>
<g id="Menu">
	<g>
		<path class="st5" d="M27.3,45h-0.9v-4.3c0-0.3,0-0.5,0-0.8c-0.1,0.2-0.2,0.5-0.3,0.8l-1.9,4.4l-1.9-4.4c-0.2-0.4-0.3-0.6-0.3-0.8
			c0,0.2,0,0.4,0,0.8V45h-0.9v-7H22l2,4.7l0.2,0.5c0-0.1,0.1-0.2,0.2-0.5l2-4.7h0.8V45z"/>
		<path class="st5" d="M31,45.1c-0.7,0-1.2-0.2-1.7-0.7c-0.4-0.5-0.6-1.1-0.6-1.9c0-0.8,0.2-1.5,0.6-2c0.4-0.5,1-0.7,1.6-0.7
			c0.6,0,1.1,0.2,1.5,0.6s0.6,1,0.6,1.8c0,0.2,0,0.4,0,0.6h-3.5c0,0.5,0.2,0.8,0.4,1.1c0.3,0.3,0.6,0.4,1,0.4c0.4,0,0.8-0.2,1.1-0.5
			l0.5,0.6C32.2,44.9,31.7,45.1,31,45.1z M29.6,42h2.6c0-0.5-0.1-0.9-0.4-1.1c-0.2-0.2-0.5-0.4-0.9-0.4c-0.4,0-0.7,0.1-1,0.4
			S29.7,41.5,29.6,42z"/>
		<path class="st5" d="M37.6,45v-3.1c0-0.5-0.1-0.8-0.3-1c-0.2-0.2-0.5-0.3-0.8-0.3c-0.8,0-1.2,0.4-1.2,1.3V45h-0.9v-5.1h0.9v0.5
			c0.3-0.4,0.8-0.6,1.3-0.6c0.6,0,1.1,0.2,1.4,0.5c0.3,0.4,0.5,0.9,0.5,1.7V45H37.6z"/>
		<path class="st5" d="M43.2,45v-0.5c-0.3,0.4-0.7,0.6-1.3,0.6c-0.6,0-1.1-0.2-1.4-0.5S40,43.6,40,42.8v-3h0.9V43
			c0,0.5,0.1,0.8,0.3,1s0.5,0.3,0.8,0.3c0.8,0,1.2-0.4,1.2-1.3v-3.1H44V45H43.2z"/>
	</g>
</g>
<g id="Cadastro">
</g>
<g id="Mapa">
</g>
<g id="Materiais">
</g>
<g id="Ajuda">
</g>
</svg>
