<?xml version="1.0" encoding="utf-8"?>
<!-- Generator: Adobe Illustrator 21.0.0, SVG Export Plug-In . SVG Version: 6.00 Build 0)  -->
<svg version="1.1" id="menu_1_" xmlns="http://www.w3.org/2000/svg" xmlns:xlink="http://www.w3.org/1999/xlink" x="0px" y="0px"
	 viewBox="0 0 65.2 51.2" style="enable-background:new 0 0 65.2 51.2;" xml:space="preserve">
<style type="text/css">
	.st0{filter:url(#Adobe_OpacityMaskFilter);}
	.st1{mask:url(#Preenchimento_de_Cor_1_xA0_Imagem_2_);}
	.st2{fill-rule:evenodd;clip-rule:evenodd;fill:#FFFFFF;}
	.st3{fill-rule:evenodd;clip-rule:evenodd;fill:#222221;}
	.st4{fill:#FFFFFF;}
	.st5{fill:#222221;}
</style>
<defs>
	<filter id="Adobe_OpacityMaskFilter" filterUnits="userSpaceOnUse" x="-130.5" y="-78.8" width="329" height="51.2">
		<feColorMatrix  type="matrix" values="1 0 0 0 0  0 1 0 0 0  0 0 1 0 0  0 0 0 1 0"/>
	</filter>
</defs>
<mask maskUnits="userSpaceOnUse" x="-130.5" y="-78.8" width="329" height="51.2" id="Preenchimento_de_Cor_1_xA0_Imagem_2_">
</mask>
<g id="Preenchimento_de_Cor_1_xA0_Imagem_1_" class="st1">
</g>
<g id="Forma_723_2_">
	<g>
		<path class="st3" d="M41.5,16.8c0-4.7-4-8.6-8.9-8.6c-4.9,0-8.9,3.8-8.9,8.6c0,0.1,0,0.2,0,0.4l0,0.3c0,4.5,8.1,14.4,8.4,14.8
			l0.5,0.6l0.5-0.6c0.3-0.4,8.4-10.4,8.4-14.8v-0.6h0C41.5,16.9,41.5,16.8,41.5,16.8z M41,17.4L41,17.4c0,1.9-1.4,4.9-4,8.8
			c-2,3-4.1,5.6-4.3,5.8l-0.1,0.1L32.5,32c-0.2-0.3-2.3-2.8-4.3-5.8c-2.6-3.9-4-6.9-4-8.7l0-0.4c0-0.1,0-0.2,0-0.4
			c0-4.5,3.8-8.1,8.4-8.1c4.6,0,8.4,3.6,8.4,8.1c0,0.1,0,0.2,0,0.3L41,17.4L41,17.4z M32.6,12.5c-2.9,0-5.3,2.3-5.3,5.1
			c0,2.8,2.4,5.1,5.3,5.1c2.9,0,5.2-2.3,5.2-5.1C37.8,14.8,35.5,12.5,32.6,12.5z M32.6,22.2c-2.6,0-4.8-2.1-4.8-4.6
			c0-2.5,2.1-4.6,4.8-4.6c2.6,0,4.7,2.1,4.7,4.6C37.3,20.1,35.2,22.2,32.6,22.2z"/>
	</g>
</g>
<g id="Menu">
</g>
<g id="Cadastro">
</g>
<g id="Mapa">
	<g>
		<path class="st5" d="M27.4,44h-0.9v-4.3c0-0.3,0-0.5,0-0.8c-0.1,0.2-0.2,0.5-0.3,0.8l-1.9,4.4l-1.9-4.4c-0.2-0.4-0.3-0.6-0.3-0.8
			c0,0.2,0,0.4,0,0.8V44h-0.9v-7h0.8l2,4.7l0.2,0.5c0-0.1,0.1-0.2,0.2-0.5l2-4.7h0.8V44z"/>
		<path class="st5" d="M32.2,44v-0.5c-0.4,0.4-0.9,0.6-1.4,0.6c-0.5,0-1-0.1-1.3-0.4c-0.3-0.3-0.5-0.7-0.5-1.3c0-0.6,0.2-1,0.6-1.3
			c0.4-0.3,0.8-0.4,1.4-0.4c0.5,0,0.9,0.1,1.3,0.3v-0.4c0-0.4-0.1-0.7-0.3-0.9s-0.5-0.3-0.8-0.3c-0.5,0-1,0.2-1.5,0.5l-0.2-0.7
			c0.5-0.4,1.2-0.5,1.8-0.5c1.2,0,1.8,0.6,1.8,1.8V44H32.2z M30.8,43.4c0.5,0,0.9-0.2,1.3-0.7v-0.9c-0.4-0.2-0.8-0.3-1.2-0.3
			c-0.4,0-0.6,0.1-0.9,0.2s-0.3,0.4-0.3,0.7c0,0.3,0.1,0.5,0.3,0.7C30.2,43.3,30.5,43.4,30.8,43.4z"/>
		<path class="st5" d="M36.7,44.1c-0.5,0-1-0.2-1.3-0.6v2.1L34.5,46v-7.1h0.9v0.4c0.4-0.4,0.8-0.6,1.3-0.6c0.6,0,1.2,0.2,1.5,0.7
			c0.4,0.5,0.6,1.1,0.6,2c0,0.8-0.2,1.5-0.6,2S37.3,44.1,36.7,44.1z M36.6,43.3c0.4,0,0.8-0.2,1-0.5c0.2-0.3,0.3-0.8,0.3-1.4
			c0-0.6-0.1-1-0.4-1.4s-0.6-0.5-1-0.5c-0.5,0-0.9,0.2-1.2,0.7v2.4C35.7,43.1,36.1,43.3,36.6,43.3z"/>
		<path class="st5" d="M43.1,44v-0.5c-0.4,0.4-0.9,0.6-1.5,0.6c-0.5,0-1-0.1-1.3-0.4c-0.3-0.3-0.5-0.7-0.5-1.3c0-0.6,0.2-1,0.5-1.3
			c0.4-0.3,0.8-0.4,1.4-0.4c0.5,0,0.9,0.1,1.3,0.3v-0.4c0-0.4-0.1-0.7-0.3-0.9c-0.2-0.2-0.5-0.3-0.8-0.3c-0.5,0-1,0.2-1.5,0.5
			l-0.2-0.7c0.5-0.4,1.2-0.5,1.8-0.5c1.2,0,1.8,0.6,1.8,1.8V44H43.1z M41.7,43.4c0.5,0,0.9-0.2,1.3-0.7v-0.9
			c-0.4-0.2-0.8-0.3-1.2-0.3c-0.4,0-0.6,0.1-0.9,0.2c-0.2,0.2-0.3,0.4-0.3,0.7c0,0.3,0.1,0.5,0.3,0.7C41.1,43.3,41.4,43.4,41.7,43.4
			z"/>
	</g>
</g>
<g id="Materiais">
</g>
<g id="Ajuda">
</g>
</svg>
